<!--?xml version="1.0" encoding="utf-8"?-->
<!-- Generator: Adobe Illustrator 22.1.0, SVG Export Plug-In . SVG Version: 6.00 Build 0)  -->
<svg version="1.1" id="_x32_" xmlns="http://www.w3.org/2000/svg" xmlns:xlink="http://www.w3.org/1999/xlink" x="0px" y="0px" viewBox="0 0 738.6 800" style="enable-background:new 0 0 738.6 800;" xml:space="preserve">
<style type="text/css">
	.stblack{fill:#000000;}
	.st0{fill:#FFFFFF;}
</style>
<g>
	<path class="stblack" d="M372.7,780c-20.8,0-37.8-17.1-54.2-33.7c-10.9-11-24.4-24.7-32.5-24.7c-0.2,0-0.4,0-0.5,0c-5.6-0.2-11.3-0.4-17-0.5
		c-29.6-0.8-60.1-1.6-90.2-8.8c-38.6-8.7-72.4-26.9-97.9-52.6c-25.6-25.4-43.8-59.2-52.5-97.8c-7.2-30-8-60.6-8.8-90.2
		c-0.2-5.7-0.3-11.4-0.5-17c0-0.2,0-0.4,0-0.5V287.4c0-0.2,0-0.4,0-0.5c0.2-5.6,0.4-11.3,0.5-17c0.8-29.6,1.6-60.2,8.8-90.2
		c8.7-38.6,26.9-72.4,52.6-97.9c25.4-25.6,59.2-43.8,97.8-52.5c30-7.2,60.6-8,90.2-8.8c5.7-0.2,11.4-0.3,17-0.5c0.2,0,0.4,0,0.5,0
		h166.8c0.2,0,0.4,0,0.5,0c5.6,0.2,11.3,0.4,17,0.5c29.6,0.8,60.1,1.6,90.2,8.8c38.6,8.7,72.4,26.9,97.9,52.6
		c25.6,25.4,43.8,59.2,52.5,97.8c7.2,30,8,60.6,8.8,90.2c0.2,5.7,0.3,11.4,0.5,17c0,0.2,0,0.4,0,0.5v166.8c0,0.2,0,0.4,0,0.5
		c-0.2,5.6-0.4,11.3-0.5,17c-0.8,29.6-1.6,60.2-8.8,90.2c-8.7,38.6-26.9,72.4-52.6,97.9c-25.4,25.6-59.2,43.8-97.8,52.5
		c-30,7.2-60.6,8-90.2,8.8c-5.7,0.2-11.4,0.3-17,0.5c-0.2,0-0.4,0-0.5,0c-6.6,0-19.9,14.6-28.7,24.2
		C408.6,762.6,392.7,780,372.7,780z"></path>
	<path class="st0" d="M452.7,706.4c-26.7,0-53.3,58.4-80,58.4c-28.9,0-57.8-58.4-86.7-58.4c-33.6-1.2-70-0.7-104.3-8.9
		c-34.2-7.7-66.3-24.1-90.5-48.5c-24.4-24.1-40.8-56.2-48.5-90.5c-8.2-34.3-7.7-70.7-8.9-104.3c0-55.6,0-111.2,0-166.8
		c1.2-33.6,0.7-70,8.9-104.3c7.7-34.2,24.1-66.3,48.5-90.5c24.1-24.4,56.2-40.8,90.5-48.5c34.3-8.2,70.7-7.7,104.3-8.9
		c55.6,0,111.2,0,166.8,0c33.6,1.2,70,0.7,104.3,8.9c34.2,7.7,66.3,24.1,90.5,48.5c24.4,24.1,40.8,56.2,48.5,90.5
		c8.2,34.3,7.7,70.7,8.9,104.3c0,55.6,0,111.2,0,166.8c-1.2,33.6-0.7,70-8.9,104.3c-7.7,34.2-24.1,66.3-48.5,90.5
		c-24.1,24.4-56.2,40.8-90.5,48.5C522.7,705.6,486.3,705.2,452.7,706.4z"></path>
</g>
</svg>
